<svg width="235" height="42" xmlns="http://www.w3.org/2000/svg">
    <style>
        .cls-1 {
            fill:#0069b4;
            }
        .cls-2 {
            fill:#aa0469;
        }
        .scaled-path {
            transform: scale(0.3);
            transform-origin: 0 0;
        }
        #logo_dark {
            display: none;
        }
        @media (prefers-color-scheme: dark) {
            .cls-1 {
                fill:#fff;
                }
        }
    </style>
    <svg xmlns="http://www.w3.org/2000/svg" width="800" height="150" class="scaled-path">
        <path class="cls-1" d="m660.02,108.46c-4.43-2.48-1.56-5.8-1.56-5.8l8.37-10.34c1.8-2.18,4.23-1.95,6-1.04,19.28,9.81,45.12,12.23,63.73,9.71,16.15-2.19,18.97-9.14,18.97-15.16,0-8.57-8.2-11.38-8.2-11.38-4.91-2.63-24.55-3.82-48.79-6.29-24.24-2.48-38.2-14.33-38.2-32.93,0-11.53,4.67-19.4,15.33-26.41,11.19-7.36,56.29-18.11,101.07,6.27,4.14,2.12,1.56,5.8,1.56,5.8l-8.37,10.34c-1.88,2.08-4.29,1.87-6,1.04-13.11-7.08-32.76-10.75-51.29-10.67-28.38.83-28.41,9.73-28.41,13.64,0,4.38,0,9.82,17.62,11.87l33.41,3.62c31.28,3.37,44.62,15.63,44.03,36.15s-13.68,28.63-30.84,33.32c0,0-45.25,12.4-88.45-11.73Z"/><path class="cls-1" d="m352.04.25h16.34c2.11,0,3.82,1.71,3.82,3.82v115.37c0,2.11-1.71,3.82-3.82,3.82h-16.34c-2.11,0-3.82-1.71-3.82-3.82V4.07c0-2.11,1.71-3.82,3.82-3.82Z"/><path class="cls-2" d="m233.55,78.47c48.25,52.55,92.54,44.35,92.54,44.35,2.11,0,3.82-1.7,3.82-3.79v-14.81c0-2.1-1.71-3.79-3.82-3.79,0,0-26.98,1.06-46.64-11.18-19.6-12.2-30.65-27.39-30.71-27.48.07-.09,11.11-15.28,30.71-27.48,19.66-12.24,46.64-11.18,46.64-11.18,2.11,0,3.82-1.7,3.82-3.79V4.51c0-2.1-1.71-3.79-3.82-3.79,0,0-44.29-8.2-92.54,44.35C185.3-7.49,141.01.71,141.01.71c-2.11,0-3.82,1.7-3.82,3.79v14.81c0,2.1,1.71,3.79,3.82,3.79,0,0,26.98-1.06,46.64,11.18,19.6,12.2,30.65,27.39,30.71,27.48-.07.09-11.11,15.28-30.71,27.48-19.66,12.24-46.64,11.18-46.64,11.18-2.11,0-3.82,1.7-3.82,3.79v14.81c0,2.1,1.71,3.79,3.82,3.79,0,0,44.29,8.2,92.54-44.35Z"/><path class="cls-1" d="m492.92,10.28c-11.19-7.44-54.16-20.15-98.94,4.49-4.14,2.14-1.56,5.86-1.56,5.86l8.37,10.45c1.88,2.1,4.29,1.89,6,1.05,13.11-7.15,30.63-10.3,49.16-10.22,28.38.84,29.73,11.12,29.73,15.07v14.19c-4.6-2.01-9.69-3.13-15.04-3.13h-46.51c-20.78,0-37.62,16.84-37.62,37.61,0,10.39,4.21,19.8,11.02,26.6,6.8,6.81,16.21,11.02,26.6,11.02h46.51c20.77,0,37.61-16.84,37.61-37.62v-48.67c0-11.66-4.67-19.61-15.33-26.69Zm-21.06,91.88h-48.96c-8.74,0-15.84-7.41-15.84-16.52s7.1-16.5,15.84-16.5h48.96c8.73,0,15.83,7.41,15.83,16.5s-7.11,16.52-15.83,16.52Z"/><path class="cls-1" d="m106.41,10.28C95.22,2.84,52.25-9.88,7.47,14.77c-4.14,2.14-1.56,5.86-1.56,5.86l8.37,10.45c1.88,2.1,4.29,1.89,6,1.05,13.11-7.15,30.63-10.3,49.16-10.22,28.38.84,29.73,11.12,29.73,15.07v14.19c-4.6-2.01-9.69-3.13-15.04-3.13h-46.51C16.84,48.03,0,64.87,0,85.64c0,10.39,4.21,19.8,11.02,26.6,6.8,6.81,16.21,11.02,26.6,11.02h46.51c20.77,0,37.61-16.84,37.61-37.62v-48.67c0-11.66-4.67-19.61-15.33-26.69Zm-21.06,91.88h-48.96c-8.74,0-15.84-7.41-15.84-16.52s7.11-16.5,15.84-16.5h48.96c8.73,0,15.83,7.41,15.83,16.5s-7.1,16.52-15.83,16.52Z"/><path class="cls-1" d="m584.85.22c13.53,0,21.51,1.3,21.51,1.3,39.27,4.98,38.09,34.5,38.09,34.5v83.22c0,2.11-1.71,3.82-3.82,3.82h-14.92c-2.11,0-3.82-1.71-3.82-3.82V36.01s.47-10.83-20.38-12.66c-12.28-1.08-16.65-.83-16.65-.83,0,0-4.37-.25-16.64.83-20.85,1.83-20.38,12.66-20.38,12.66v83.22c0,2.11-1.71,3.82-3.82,3.82h-14.92c-2.11,0-3.82-1.71-3.82-3.82V36.01s-1.18-29.52,38.09-34.5c0,0,7.98-1.3,21.5-1.3Z"/>
    </svg>
</svg>

